<svg xmlns="http://www.w3.org/2000/svg" width="25" height="194" viewBox="0 0 25 194">
  <g fill="none" fill-rule="evenodd" stroke="#2C2C2C" stroke-linecap="square" transform="translate(1 -1)">
    <path d="M5.62930298 82.5L.375 82.5M5.81465149 34L3.1875 34M5.81465149 130L3.1875 130M5.81465149 194L3.1875 194M5.81465149 2L3.1875 2M5.81465149 98L3.1875 98M5.62930298 50L.375 50M5.62930298 146L.375 146M5.62930298 178L.375 178M5.62930298 18L.375 18M5.62930298 114L.375 114M5.81465149 66L3.1875 66M5.81465149 162L3.1875 162"/>
    <path d="M5.62930298 82.5L.375 82.5M5.81465149 34L3.1875 34M5.81465149 130L3.1875 130M5.81465149 194L3.1875 194M5.81465149 2L3.1875 2M5.81465149 98L3.1875 98M5.62930298 50L.375 50M5.62930298 18L.375 18M5.62930298 146L.375 146M5.62930298 178L.375 178M5.62930298 114L.375 114M5.81465149 66L3.1875 66M5.81465149 162L3.1875 162" transform="rotate(-180 11.5 98)"/>
  </g>
</svg>
